<?xml version="1.0" standalone="no"?><!DOCTYPE svg PUBLIC "-//W3C//DTD SVG 1.1//EN" "http://www.w3.org/Graphics/SVG/1.1/DTD/svg11.dtd"><svg t="1694749923043" class="icon" viewBox="0 0 1024 1024" version="1.1" xmlns="http://www.w3.org/2000/svg" p-id="29909" data-spm-anchor-id="a313x.search_index.0.i29.15a43a81RBuEwf" xmlns:xlink="http://www.w3.org/1999/xlink" width="200" height="200"><path d="M614.4 934.4c-134.4 0-256-70.4-332.8-179.2l19.2-12.8c70.4 108.8 185.6 172.8 313.6 172.8 204.8 0 371.2-166.4 371.2-371.2s-166.4-371.2-371.2-371.2c-121.6-6.4-230.4 51.2-300.8 153.6l-19.2-12.8c76.8-102.4 192-166.4 320-166.4 217.6 0 396.8 179.2 396.8 396.8s-179.2 390.4-396.8 390.4z" fill="#515151" p-id="29910" data-spm-anchor-id="a313x.search_index.0.i31.15a43a81RBuEwf" class=""></path><path d="M819.2 345.6L614.4 492.8c-25.6 0-44.8 25.6-44.8 57.6s19.2 57.6 44.8 57.6c25.6 0 44.8-19.2 44.8-51.2l160-211.2z" fill="#21c3c0" p-id="29911" data-spm-anchor-id="a313x.search_index.0.i27.15a43a81RBuEwf" class=""></path><path d="M499.2 416C448 384 396.8 377.6 352 409.6c-70.4 44.8-128 44.8-198.4 0-51.2-32-89.6-32-140.8 0L0 390.4c57.6-38.4 108.8-38.4 172.8 0 57.6 38.4 102.4 38.4 166.4 0s115.2-38.4 179.2 0l-19.2 25.6z" fill="#21c3c0" p-id="29912" data-spm-anchor-id="a313x.search_index.0.i30.15a43a81RBuEwf" class=""></path><path d="M499.2 544C448 512 396.8 512 352 537.6c-70.4 44.8-128 44.8-198.4 0C102.4 512 64 505.6 12.8 537.6L0 518.4c57.6-38.4 108.8-38.4 172.8 0 57.6 38.4 102.4 38.4 166.4 0s115.2-38.4 179.2 0l-19.2 25.6z" fill="#21c3c0" p-id="29913" data-spm-anchor-id="a313x.search_index.0.i35.15a43a81RBuEwf" class=""></path><path d="M499.2 678.4c-51.2-32-102.4-38.4-147.2-6.4-70.4 44.8-128 44.8-198.4 0-51.2-32-89.6-32-140.8 0l-12.8-19.2c57.6-38.4 108.8-38.4 172.8 0 57.6 38.4 102.4 38.4 166.4 0s115.2-38.4 179.2 0l-19.2 25.6z" fill="#21c3c0" p-id="29914" data-spm-anchor-id="a313x.search_index.0.i34.15a43a81RBuEwf" class=""></path><path d="M684.8 96c-83.2-12.8-134.4 0-134.4 0v25.6c12.8 0 25.6 0 32 6.4v38.4h64v-44.8c25.6 0 38.4-6.4 38.4-6.4v-19.2z" fill="#515151" p-id="29915" data-spm-anchor-id="a313x.search_index.0.i32.15a43a81RBuEwf" class=""></path><path d="M889.6 275.2l25.6-25.6 44.8 38.4-12.8 12.8-12.8 19.2-44.8-44.8z" fill="#515151" p-id="29916" data-spm-anchor-id="a313x.search_index.0.i33.15a43a81RBuEwf" class="selected"></path></svg>