<?xml version="1.0" standalone="no"?><!DOCTYPE svg PUBLIC "-//W3C//DTD SVG 1.1//EN" "http://www.w3.org/Graphics/SVG/1.1/DTD/svg11.dtd"><svg t="1694760272996" class="icon" viewBox="0 0 1025 1024" version="1.1" xmlns="http://www.w3.org/2000/svg" p-id="44040" data-spm-anchor-id="a313x.search_index.0.i41.15a43a81RBuEwf" xmlns:xlink="http://www.w3.org/1999/xlink" width="200.1953125" height="200"><path d="M972.8 520.533333H477.866667c-13.653333 0-25.6 5.12-35.84 13.653334l-175.786667 158.72c-1.706667 1.706667-3.413333 1.706667-6.826667 1.706666H59.733333c-32.426667 0-58.026667 25.6-58.026666 58.026667v58.026667c0 32.426667 25.6 58.026667 58.026666 58.026666h302.08c13.653333 0 25.6-5.12 35.84-11.946666l11.946667-10.24 71.68-56.32s1.706667-1.706667 3.413333-1.706667h486.4c29.013333 0 54.613333-23.893333 54.613334-54.613333v-160.426667c1.706667-30.72-23.893333-52.906667-52.906667-52.906667z m8.533333 215.04c0 3.413333-1.706667 5.12-5.12 5.12H539.306667l10.24-10.24c10.24-8.533333 10.24-22.186667 3.413333-32.426666-8.533333-10.24-22.186667-10.24-32.426667-3.413334l-138.24 110.933334-11.946666 10.24c-1.706667 1.706667-3.413333 1.706667-5.12 1.706666H56.32c-5.12 0-10.24-3.413333-10.24-10.24v-54.613333c0-5.12 3.413333-10.24 10.24-10.24h209.92c13.653333 0 27.306667-5.12 37.546667-13.653333l172.373333-150.186667s1.706667-1.706667 3.413333-1.706667h496.64c3.413333 0 5.12 1.706667 5.12 5.12v153.6z m-761.173333-98.986666c80.213333 0 145.066667-64.853333 145.066667-145.066667s-64.853333-145.066667-145.066667-145.066667-145.066667 64.853333-145.066667 145.066667 64.853333 145.066667 145.066667 145.066667z m0-232.106667c47.786667 0 87.04 39.253333 87.04 87.04s-39.253333 87.04-87.04 87.04-87.04-39.253333-87.04-87.04 39.253333-87.04 87.04-87.04z" fill="#515151" p-id="44041" data-spm-anchor-id="a313x.search_index.0.i42.15a43a81RBuEwf" class="selected"></path><path d="M1000.106667 868.693333H500.053333c-13.653333 0-25.6-11.946667-25.6-25.6s11.946667-25.6 25.6-25.6h500.053334c13.653333 0 25.6 11.946667 25.6 25.6 0 15.36-11.946667 25.6-25.6 25.6zM622.933333 177.493333c-10.24-10.24-25.6-10.24-35.84 0-10.24 10.24-10.24 25.6 0 35.84 0 0 35.84 40.96 0 81.92-51.2 61.44-20.48 122.88 0 148.48 5.12 5.12 10.24 10.24 20.48 10.24 5.12 0 10.24 0 15.36-5.12 10.24-10.24 10.24-25.6 0-35.84 0 0-35.84-40.96 0-81.92 51.2-66.56 20.48-128 0-153.6zM768 109.226667c-10.24-10.24-25.6-10.24-35.84 0-10.24 10.24-10.24 25.6 0 35.84 0 0 35.84 40.96 0 81.92-51.2 61.44-20.48 122.88 0 148.48 5.12 5.12 10.24 10.24 20.48 10.24 5.12 0 10.24 0 15.36-5.12 10.24-10.24 10.24-25.6 0-35.84 0 0-35.84-40.96 0-81.92 51.2-66.56 20.48-128 0-153.6zM914.773333 331.093333c51.2-66.56 20.48-128 0-153.6-10.24-10.24-25.6-10.24-35.84 0-10.24 10.24-10.24 25.6 0 35.84 0 0 35.84 40.96 0 81.92-51.2 61.44-20.48 122.88 0 148.48 5.12 5.12 10.24 10.24 20.48 10.24 5.12 0 10.24 0 15.36-5.12 10.24-10.24 10.24-25.6 0-35.84 0 0-35.84-40.96 0-81.92z" fill="#21c3c0" p-id="44042" data-spm-anchor-id="a313x.search_index.0.i43.15a43a81RBuEwf" class=""></path></svg>